<?xml version="1.0" standalone="no"?>
<!DOCTYPE svg PUBLIC "-//W3C//DTD SVG 20010904//EN"
 "http://www.w3.org/TR/2001/REC-SVG-20010904/DTD/svg10.dtd">
<svg version="1.0" xmlns="http://www.w3.org/2000/svg"
 width="160.000000pt" height="160.000000pt" viewBox="0 0 160.000000 160.000000"
 preserveAspectRatio="xMidYMid meet">
<metadata>
Created by potrace 1.14, written by Peter Selinger 2001-2017
</metadata>
<g transform="translate(0.000000,160.000000) scale(0.100000,-0.100000)"
fill="#000000" stroke="none">
<path d="M685 1368 c-16 -5 -54 -21 -83 -34 -29 -13 -56 -24 -61 -24 -5 0 -26
-16 -47 -35 -22 -19 -42 -35 -46 -35 -18 0 -114 -139 -146 -212 l-37 -83 0
-145 1 -145 36 -77 c48 -101 105 -177 169 -224 115 -85 178 -110 304 -124 128
-13 209 0 317 53 152 74 249 188 309 362 18 54 18 245 0 310 -53 187 -192 335
-378 400 -58 21 -86 24 -188 24 -66 0 -133 -5 -150 -11z m242 -140 c15 -6 30
-12 33 -13 75 -19 120 -45 181 -105 168 -167 173 -430 10 -603 -42 -44 -120
-97 -145 -97 -9 0 -27 -7 -39 -15 -53 -35 -235 -28 -292 11 -11 8 -25 14 -33
14 -7 0 -30 12 -50 27 -89 66 -151 161 -178 273 -18 75 -17 104 5 192 37 144
146 258 291 306 72 24 173 28 217 10z"/>
<path d="M719 1147 c-20 -8 -50 -23 -67 -35 -16 -12 -35 -22 -41 -22 -6 0 -11
-3 -11 -8 0 -4 -18 -25 -40 -47 -64 -64 -57 -75 50 -75 78 0 93 3 111 21 52
52 155 54 231 4 32 -21 49 -25 117 -25 44 0 82 4 85 9 3 5 -3 20 -14 34 -11
14 -20 29 -20 34 -1 11 -86 76 -130 98 -46 24 -219 31 -271 12z"/>
<path d="M490 805 l0 -65 344 0 344 0 6 23 c8 29 8 71 0 91 -5 14 -46 16 -350
16 l-344 0 0 -65z"/>
<path d="M520 643 c0 -16 43 -79 68 -101 14 -13 51 -37 82 -55 53 -31 59 -32
165 -32 93 0 117 3 156 22 60 29 144 105 158 143 l10 30 -85 0 c-74 0 -89 -3
-123 -26 -25 -16 -59 -27 -95 -31 -49 -5 -64 -2 -120 26 -54 26 -74 31 -140
31 -42 0 -76 -3 -76 -7z"/>
</g>
</svg>
